<svg xmlns="http://www.w3.org/2000/svg" height="800" width="1200" viewBox="-17.83557 -4.3061 154.57494 25.8366"><defs><linearGradient id="a" gradientUnits="userSpaceOnUse" x1="3864.9817" y1="49.0008" x2="3893.3887" y2="49.0008" gradientTransform="matrix(-1 0 0 1 3894.2446 0)"><stop offset="0" stop-color="#d81222"/><stop offset="1" stop-color="#960b1a"/></linearGradient></defs><g transform="translate(12.5828 -171.9711)"><path d="M1.9428 188.931H.0378v-9.2076h1.905zm7.1702-6.4294c.4498.3704.6615.979.6615 1.8256v4.6037H7.9488v-4.1275c0-.3704-.0529-.635-.1322-.8202-.1853-.344-.5028-.5291-1.0055-.5291-.6085 0-1.0054.2645-1.2435.7673-.1058.2645-.1852.6085-.1852 1.0318v3.7042H3.6097v-6.8263h1.7198v1.0055c.238-.344.4498-.6086.635-.7673.3704-.2646.8202-.4234 1.4023-.4234.7143 0 1.2964.1852 1.7462.5557zm1.5346.9524v-1.27H11.6v-1.905h1.7727v1.905h1.1113v1.27h-1.1113v3.5984c0 .291.0265.4498.1058.5292.0794.0794.291.1058.6615.1058h.3704v1.323l-.8996.0264c-.8466.0265-1.4287-.1058-1.7198-.4498-.2116-.2116-.291-.5291-.291-.9525v-4.1804zm9.3134-1.1906c.4762.2117.873.5557 1.1906 1.0055.291.3968.4497.873.5556 1.4022.0529.3175.0794.7673.0529 1.3494h-4.9742c.0265.688.2646 1.1642.7144 1.4288.2646.1587.6085.2646.979.2646.3968 0 .7408-.1059.9789-.3175.1323-.1059.2646-.2646.3704-.4763h1.8256c-.0529.3969-.2645.8202-.6614 1.2436-.6086.6614-1.4552 1.0054-2.5665 1.0054-.8996 0-1.7198-.291-2.4077-.8467-.6879-.5556-1.0319-1.4817-1.0319-2.7252 0-1.1906.3175-2.0902.9525-2.7252.635-.635 1.4288-.9525 2.4342-.9525.5821.0265 1.1113.1323 1.5875.344zm-2.6724 1.5346c-.2645.2646-.4233.6086-.4762 1.0584h3.0692c-.0265-.4763-.1853-.8202-.4763-1.0848-.291-.2382-.635-.3704-1.0583-.3704-.4498 0-.7938.1322-1.0584.3968zm9.2869-1.8256h.1588v1.8256c-.1059 0-.2117-.0265-.291-.0265h-.2117c-.7144 0-1.1907.2381-1.4553.688-.1322.2645-.2116.6614-.2116 1.217v3.2544h-1.7992v-6.7998h1.6933v1.1906c.2646-.4498.5028-.7673.7144-.926.344-.291.7673-.4233 1.2965-.4233.0529-.0265.0794-.0265.1058 0zm3.8894 2.831c.344-.0529.582-.1058.7144-.1587.2645-.1058.3968-.2646.3968-.5027 0-.291-.1058-.4763-.291-.5821-.1852-.1058-.4763-.1588-.8731-.1588-.4234 0-.7409.1059-.8996.3175-.1323.1588-.2117.3705-.2646.635H27.528c.0265-.6085.2117-1.0847.5027-1.4816.4763-.6086 1.2965-.8996 2.4342-.8996.7408 0 1.4287.1588 2.0108.4498.5821.291.8731.8467.8731 1.6669v3.9158c0 .2381.053.3969.1059.4763.0529.0793.1587.1587.2646.2116v.2646h-1.9315c-.0529-.1323-.0794-.2646-.1058-.3969-.0265-.1323-.0265-.2646-.053-.4233a3.5735 3.5735 0 01-.8466.688c-.3969.2116-.8202.3439-1.323.3439-.6085 0-1.1376-.1852-1.5345-.5292-.3969-.344-.6085-.8467-.6085-1.5081 0-.8467.3175-1.4552.979-1.8257.3703-.2116.873-.344 1.5874-.4497zm1.0848.8202c-.1059.0794-.2381.1323-.344.1853-.1058.0529-.2646.0794-.4762.1323l-.397.0794c-.3703.0794-.6614.1587-.8201.238-.291.1588-.4233.4234-.4233.7674 0 .3175.0794.5291.2645.6614.1588.1323.3705.2117.635.2117.397 0 .7409-.1058 1.0848-.344.3175-.2381.5027-.635.5027-1.2435v-.688zm7.3819-1.0583c-.0265-.2646-.1059-.4762-.2646-.6879-.2117-.2646-.5027-.4233-.926-.4233-.6086 0-1.0055.291-1.2436.8996-.1058.3175-.1852.7408-.1852 1.27 0 .5027.0529.8995.1852 1.217.2117.5557.6085.8467 1.217.8467.4234 0 .7144-.1058.8997-.344.1852-.238.291-.5291.3175-.873h1.8256c-.053.5555-.2381 1.0583-.5821 1.5345-.5556.7673-1.3758 1.1642-2.487 1.1642-1.1113 0-1.905-.3175-2.4343-.979-.5291-.6614-.7672-1.5081-.7672-2.54 0-1.1642.291-2.0902.8466-2.7252.5821-.6615 1.3494-.979 2.3813-.979.8466 0 1.561.1853 2.0902.5821.5291.3969.8731 1.0584.979 2.0373zm2.4077-1.1113v-1.27h.9525v-1.905h1.7727v1.905h1.1112v1.27h-1.1112v3.5984c0 .291.0264.4498.1058.5292.0794.0794.291.1058.6615.1058h.3704v1.323l-.8731.0264c-.8467.0265-1.4288-.1058-1.7198-.4498-.2117-.2116-.291-.5291-.291-.9525v-4.1804zm6.8262-2.143h-1.7992v-1.6405h1.7992zm-1.8256.8201h1.7992v6.8263h-1.7992zm7.62 0h1.905l-2.4606 6.8263h-1.8786l-2.4341-6.8263h2.0108l1.4287 5.0271zm7.1173.1323c.4762.2117.8731.5557 1.1906 1.0055.291.3968.4498.873.5556 1.4022.053.3175.0794.7673.053 1.3494h-4.9742c.0265.688.2645 1.1642.7143 1.4288.2646.1587.6086.2646.979.2646.3969 0 .7408-.1059.979-.3175.1322-.1059.2645-.2646.3704-.4763h1.8256c-.0529.3969-.2646.8202-.6615 1.2436-.6085.6614-1.4552 1.0054-2.5664 1.0054-.8996 0-1.7198-.291-2.4077-.8467-.688-.5556-1.0319-1.4817-1.0319-2.7252 0-1.1906.3175-2.0902.9525-2.7252.635-.635 1.4287-.9525 2.4342-.9525.582.0265 1.1112.1323 1.5875.344zm-2.6723 1.5346c-.2646.2646-.4233.6086-.4763 1.0584h3.0692c-.0265-.4763-.1852-.8202-.4762-1.0848-.291-.2382-.635-.3704-1.0584-.3704-.4498 0-.7937.1322-1.0583.3968zm5.6356-4.0481h3.9688c1.0848 0 1.852.3175 2.3018.9525.2646.3704.397.8202.397 1.323 0 .582-.1588 1.0583-.5028 1.4287-.1587.1852-.4233.3704-.7408.5291.4762.1852.8202.3704 1.0583.6086.4233.3968.6085.9525.6085 1.6668 0 .5821-.1852 1.1378-.5556 1.614-.5556.7144-1.4552 1.0848-2.6723 1.0848h-3.9158v-9.2075zm3.519 3.8894c.5291 0 .9525-.0794 1.2435-.2117.4763-.2381.688-.635.688-1.2435 0-.6086-.2382-1.0055-.741-1.2171-.291-.1059-.6878-.1852-1.2434-.1852h-2.249v2.8575zm.4233 4.2333c.7673 0 1.323-.2117 1.6404-.6615.2117-.291.3175-.6085.3175-1.0054 0-.6614-.291-1.1112-.8996-1.3758-.3175-.1323-.7408-.1852-1.27-.1852h-2.487v3.228zm4.5244-5.6356h1.0583v1.1641c.0794-.238.291-.5027.635-.8202.344-.3175.7408-.4762 1.1906-.4762h.1059c.0529 0 .1323 0 .2646.0265v1.1906c-.0794 0-.1323-.0265-.1853-.0265h-.1852c-.5556 0-1.0054.1852-1.2964.5556-.3175.3705-.4498.7938-.4498 1.27v3.863h-1.1377zm9.0223.6614c.582.5821.8996 1.4288.8996 2.54 0 1.0848-.2646 1.9844-.7938 2.6723-.5292.7144-1.323 1.0584-2.4342 1.0584-.926 0-1.6404-.3175-2.1695-.926-.5292-.635-.8203-1.4553-.8203-2.5136 0-1.1377.291-2.0109.8467-2.6988.5556-.6614 1.323-1.0054 2.2754-1.0054.8732.0265 1.5875.3175 2.196.8731zm-.7144 4.4715a4.3545 4.3545 0 00.4233-1.8785c0-.635-.1058-1.1377-.291-1.5346-.3175-.6086-.8467-.926-1.614-.926-.6879 0-1.1641.2645-1.4816.7937-.3175.5291-.4763 1.1641-.4763 1.905 0 .7144.1588 1.2964.4763 1.7727.3175.4762.7937.7144 1.4816.7144.7144 0 1.2171-.291 1.4817-.8467zm2.8575-7.62h1.0848v5.3446l2.884-2.8575H89.07l-2.5665 2.487 2.7252 4.207H87.8l-2.1167-3.4132-.926.8996v2.5135h-1.0848zm10.2394 2.6723c.4498.2117.7937.5027 1.0054.8731.2117.344.3704.7409.4498 1.1906.0794.3175.1058.7938.1058 1.4817h-4.8683c.0265.688.1852 1.217.4762 1.6404.291.4234.7673.6086 1.3759.6086.582 0 1.0583-.1852 1.4023-.5821.1852-.2381.344-.4763.4233-.7938h1.1112c-.0265.2382-.1323.5292-.291.8202-.1588.291-.344.5557-.5556.7409-.344.344-.7673.5556-1.27.6879-.2646.0794-.5821.1058-.926.1058-.8203 0-1.5347-.291-2.1167-.8996-.5821-.6085-.8732-1.4552-.8732-2.54 0-1.0847.291-1.9579.8732-2.6193.582-.6615 1.3493-1.0054 2.2754-1.0054.5027-.053.9525.0794 1.4023.291zm.4233 2.6458c-.0529-.4762-.1587-.8731-.3175-1.1641-.3175-.5557-.8202-.8203-1.5346-.8203-.5027 0-.9525.1853-1.2964.5557-.344.3704-.5292.8466-.5557 1.4287zm2.4871-2.831h1.0583v1.1641c.0794-.238.291-.5027.635-.8202.344-.3175.7409-.4762 1.1906-.4762h.1059c.0529 0 .1323 0 .2646.0265v1.1906c-.0794 0-.1323-.0265-.1852-.0265h-.1853c-.5556 0-1.0054.1852-1.2964.5556-.3175.3705-.4498.7938-.4498 1.27v3.863h-1.1377zm4.9212 4.6037c.0265.3705.1323.6615.291.8732.2911.3704.7938.5556 1.5082.5556.4233 0 .7938-.0794 1.1377-.2646.3175-.1852.4763-.4498.4763-.8467 0-.291-.1323-.5027-.397-.6614-.1587-.0794-.5026-.1852-.9789-.3175l-.8996-.2381c-.582-.1323-1.0054-.291-1.2964-.4763-.5027-.3175-.7408-.7144-.7408-1.27 0-.635.238-1.1377.6879-1.5346.4498-.3969 1.0848-.582 1.8785-.582 1.0319 0 1.7727.291 2.2225.8995.291.3704.4233.7938.4233 1.2171h-1.0583c-.0265-.2646-.1058-.4762-.2646-.688-.2646-.291-.7143-.4497-1.3758-.4497-.4233 0-.7673.0794-.979.2381-.2116.1588-.344.3704-.344.635 0 .291.1588.5292.4499.688.1587.1058.4233.1851.7408.2645l.7673.1852c.8202.1852 1.3758.3969 1.6669.5821.4498.291.6614.7408.6614 1.3494 0 .6085-.238 1.1112-.6879 1.5346-.4498.4233-1.1642.6614-2.0902.6614-1.0054 0-1.7198-.2381-2.1431-.6879-.4234-.4498-.635-1.0054-.688-1.6933h1.032z" class="st0"/><path class="st1" transform="translate(-12.821 171.8389) scale(.26458)" fill="url(#a)" d="M29.3 64.6H.9V33.4z"/><circle r="2.249" cy="182.6868" cx="-6.127" class="st2" fill="#d81222"/><path class="st2" fill="#d81222" d="M-5.0687 171.9711l-7.5141 8.7048v8.255z"/></g></svg>